<?xml version="1.0" standalone="no"?>
<!DOCTYPE svg PUBLIC "-//W3C//DTD SVG 20010904//EN" "http://www.w3.org/TR/2001/REC-SVG-20010904/DTD/svg10.dtd">
<!-- Created using Krita: https://krita.org -->
<svg xmlns="http://www.w3.org/2000/svg" 
    xmlns:xlink="http://www.w3.org/1999/xlink"
    xmlns:krita="http://krita.org/namespaces/svg/krita"
    xmlns:sodipodi="http://sodipodi.sourceforge.net/DTD/sodipodi-0.dtd"
    width="545.16pt"
    height="239.88pt"
    viewBox="0 0 545.16 239.88">
<defs/>
<g id="group0" transform="matrix(0.999999967341777 0 0 0.999999967341777 32.2210135884529 34.0799959992145)" fill="none">
  <path id="shape0" transform="matrix(18.0099037190121 0 0 18.0099037190121 -2.69233333227703e-06 0.324416603511004)" fill="none" stroke="#2cb623" stroke-width="0.72" stroke-linecap="round" stroke-linejoin="miter" stroke-miterlimit="2.03999996185303" d="M4.86 0L0 4.815L4.86 9.63" sodipodi:nodetypes="ccc"/>
  <path id="shape01" transform="matrix(-18.0099030522016 0 0 18.0099030522016 481.438008062598 -1.06581410364015e-13)" fill="none" stroke="#2cb623" stroke-width="0.72" stroke-linecap="round" stroke-linejoin="miter" stroke-miterlimit="2.03999996185303" d="M4.86 0L0 4.815L4.86 9.63" sodipodi:nodetypes="ccc"/>
  <path id="shape1" transform="matrix(18.0099037190121 0 0 18.0099037190121 111.469341125484 0.319012187148992)" fill="none" stroke="#2cb623" stroke-width="0.72" stroke-linecap="round" stroke-linejoin="miter" stroke-miterlimit="2.03999996185303" d="M14.425 0.0424233C13.633 0.0282822 12.8411 0.0141411 12.0491 0L7.21249 9.58837L2.37588 0.0424264L0 0.0424233" sodipodi:nodetypes="ccccc"/>
  <path id="shape2" transform="matrix(18.0099037190121 0 0 18.0099037190121 187.155026603625 0.324457965470124)" fill="none" stroke="#2cb623" stroke-width="0.72" stroke-linecap="round" stroke-linejoin="bevel" d="M2.985 6.33C1.985 4.22 1 2.11 0 0C0.928889 0.00444444 4.15 0.005 6.24 0.015C5.17 2.125 4.055 4.22 2.985 6.33" sodipodi:nodetypes="cccc"/>
 </g>
</svg>
